HIERARCHY
ROOT Hips
{
  OFFSET -31.5692 30.0904 122.763
  CHANNELS 6 Xposition Yposition Zposition Zrotation Xrotation Yrotation
  JOINT LeftUpLeg
  {
    OFFSET 8.64259 1.95398 -2.38835
    CHANNELS 3 Zrotation Xrotation Yrotation
    JOINT LeftLeg
    {
      OFFSET 43.7702 0 0
      CHANNELS 3 Zrotation Xrotation Yrotation
      JOINT LeftFoot
      {
        OFFSET 40.6238 0 0
        CHANNELS 3 Zrotation Xrotation Yrotation
        JOINT LeftToeBase
        {
          OFFSET 12.7242 0 0
          CHANNELS 3 Zrotation Xrotation Yrotation
          End Site
          {
            OFFSET 0 0 0
          }
        }
      }
    }
  }
  JOINT RightUpLeg
  {
    OFFSET -8.2249 1.95398 -2.59336
    CHANNELS 3 Zrotation Xrotation Yrotation
    JOINT RightLeg
    {
      OFFSET 43.5653 0 0
      CHANNELS 3 Zrotation Xrotation Yrotation
      JOINT RightFoot
      {
        OFFSET 40.6238 0 0
        CHANNELS 3 Zrotation Xrotation Yrotation
        JOINT RightToeBase
        {
          OFFSET 12.7242 0 0
          CHANNELS 3 Zrotation Xrotation Yrotation
          End Site
          {
            OFFSET 0 0 0
          }
        }
      }
    }
  }
  JOINT Spine
  {
    OFFSET 0.165834 0.87714 6.61349
    CHANNELS 3 Zrotation Xrotation Yrotation
    JOINT Spine1
    {
      OFFSET 7.38963 1.71661e-005 0
      CHANNELS 3 Zrotation Xrotation Yrotation
      JOINT Spine2
      {
        OFFSET 11.9445 1.14441e-005 0
        CHANNELS 3 Zrotation Xrotation Yrotation
        JOINT Spine3
        {
          OFFSET 14.7254 4.19617e-005 0
          CHANNELS 3 Zrotation Xrotation Yrotation
          JOINT Spine4
          {
            OFFSET 10.9679 0 0
            CHANNELS 3 Zrotation Xrotation Yrotation
            JOINT RightShoulder
            {
              OFFSET 2.46616 -1.6653 3.69651
              CHANNELS 3 Zrotation Xrotation Yrotation
              JOINT RightArm
              {
                OFFSET 13.0012 0 0
                CHANNELS 3 Zrotation Xrotation Yrotation
                JOINT RightForeArm
                {
                  OFFSET 28.7848 1.62311e-005 0
                  CHANNELS 3 Zrotation Xrotation Yrotation
                  JOINT RightHand
                  {
                    OFFSET 26.5688 1.62095e-005 0
                    CHANNELS 3 Zrotation Xrotation Yrotation
                    End Site
                    {
                      OFFSET 0 0 0
                    }
                  }
                }
              }
            }
            JOINT LeftShoulder
            {
              OFFSET 2.38034 -1.29275 -3.7523
              CHANNELS 3 Zrotation Xrotation Yrotation
              JOINT LeftArm
              {
                OFFSET 16.3182 6.07031e-005 0
                CHANNELS 3 Zrotation Xrotation Yrotation
                JOINT LeftForeArm
                {
                  OFFSET 27.0901 0 0
                  CHANNELS 3 Zrotation Xrotation Yrotation
                  JOINT LeftHand
                  {
                    OFFSET 24.5451 1.51738e-005 0
                    CHANNELS 3 Zrotation Xrotation Yrotation
                    End Site
                    {
                      OFFSET 0 0 0
                    }
                  }
                }
              }
            }
            JOINT Neck
            {
              OFFSET 5.0226 -0.0266342 0
              CHANNELS 3 Zrotation Xrotation Yrotation
              JOINT Head
              {
                OFFSET 6.69364 2.86102e-005 0
                CHANNELS 3 Zrotation Xrotation Yrotation
                End Site
                {
                  OFFSET 0 0 0
                }
              }
            }
          }
        }
      }
    }
  }
}
MOTION
Frames:	6
Frame Time:	0.0416667
29.1561 98.8232 -102.989 -178.2 -81.1285 178.903 -172.146 -3.68123 85.528 -28.3118 12.608 -2.7926 81.9291 13.219 -3.70351 18.9684 -8.12339 7.36879 174.675 22.1012 87.7118 -31.426 -7.0237 -0.811668 65.8589 -3.14282 -2.15951 17.7882 3.44087 5.65028 -0.456542 8.24493 -90.042 10.3883 -0.928583 0.00159249 -1.28235 -0.927614 0.0424689 -23.8201 -0.886139 -0.277576 -3.80747 -0.886143 -0.277577 89.4165 -34.4649 -106.239 31.4617 -4.34907 -5.21561 5.57454 -28.3969 -13.0465 -22.7038 -0.214913 -9.38389 -88.3143 -45.4697 80.3686 -26.2634 -0.026466 -20.454 0.289723 4.18958 -0.0988549 9.91609 -2.38012 -25.6715 -13.771 1.93986 -8.2515 -2.41116 2.14657 3.26814 
30.3613 99.7717 -106.728 -158.052 -79.7037 -162.126 -174.18 -3.9084 81.9624 -24.4062 7.50103 -2.92093 78.2825 10.6896 -2.22121 16.2297 -8.70378 5.16856 174.928 20.3394 85.9987 -44.6159 -8.87817 -3.07493 68.279 -4.62748 -1.61661 20.6175 2.74893 3.85127 0.0786555 8.24991 -89.5556 10.3718 0.360157 0.849929 -1.29939 0.397214 0.833254 -23.8323 0.0880747 0.918883 -3.81965 0.0880762 0.918873 88.896 -32.342 -108.008 34.0788 -5.80577 -4.18879 5.06318 -29.8916 -15.1433 -23.0304 -0.149778 -10.0743 -87.989 -48.0091 81.3695 -23.1863 2.50347 -11.9328 -1.80152 0.966727 -0.0266005 6.78407 -1.452 -21.7922 -15.4744 1.8833 -8.2044 -1.40885 1.96322 1.4095 
30.9613 100.361 -109.716 -152.935 -78.92 -157.272 -175.62 -3.3251 80.466 -21.4297 5.11324 -2.1917 75.2888 8.33497 -2.52757 14.6892 -9.32492 4.64943 174.209 14.5532 84.6506 -55.0332 -10.1881 -4.65241 68.8676 -5.14039 -3.59865 22.9975 1.17082 5.96725 0.456987 8.15815 -89.3272 10.5496 1.21935 1.22789 -1.12128 1.2722 1.17303 -23.6541 0.793998 1.53754 -3.64142 0.793994 1.53753 88.7944 -30.9679 -108.742 35.5873 -6.85953 -2.71841 4.5004 -29.6396 -17.34 -24.9803 -0.0118115 -10.4211 -87.6763 -50.7788 82.346 -24.9551 0.4596 -2.06909 0.176774 -1.91531 0.000946685 1.38047 -0.58531 -20.1977 -15.6125 0.88437 -7.15526 -1.38236 0.892706 -1.09838 
31.4083 100.401 -112.437 -148.297 -79.1668 -153.491 -176.368 -0.771069 79.0488 -21.2171 4.76575 -2.22748 73.7013 7.48701 -0.889146 13.0497 -9.96697 4.07235 172.397 6.92957 82.1992 -59.433 -13.4738 -5.70869 67.712 -4.32248 -2.03433 23.2392 1.39683 4.67609 0.809923 7.9244 -89.038 11.0067 2.05808 1.71749 -0.663634 2.13167 1.62523 -23.1971 1.44689 2.25649 -3.18441 1.4469 2.25649 88.5765 -30.2515 -109.462 37.8573 -6.04704 -1.27284 3.95331 -29.2965 -17.1994 -24.9723 0.0630643 -10.7559 -86.7184 -52.0733 83.9742 -26.7558 2.40991 8.84723 -2.62253 -11.5248 -0.190784 6.19091 -1.04155 -13.5591 -15.8483 -0.0769553 -7.59513 -1.4563 -0.11767 -2.57911 
31.1718 99.9681 -115.819 -144.177 -79.4995 -150.097 -175.457 3.26847 79.3079 -23.5907 4.87173 -3.53571 72.6633 6.46939 -1.65851 13.4125 -9.80969 4.17066 170.666 -1.56883 81.2112 -56.8222 -21.0035 -6.73986 67.2362 -4.52483 -2.38442 25.1007 0.268715 6.20434 1.09611 7.72635 -88.7303 11.3923 2.77345 2.24845 -0.277456 2.8697 2.12419 -22.8107 1.96979 2.97776 -2.79807 1.96979 2.97775 88.6017 -30.1985 -109.435 39.6669 -6.75181 -1.31067 4.31921 -28.5113 -17.3251 -25.165 0.148331 -10.9894 -85.9995 -52.3956 85.0779 -28.5722 1.45463 16.6389 -1.62668 -13.6439 -1.07048 3.24862 -0.798713 -10.7078 -14.9543 -0.596481 -8.83831 -2.30911 -0.556844 -3.18943 
31.2642 99.422 -120.709 -137.88 -78.4552 -144.721 -175.303 7.65818 78.7928 -25.5881 2.58887 -4.10294 70.7599 4.52856 -2.424 11.8452 -10.6393 4.02541 170.215 -9.84099 80.4611 -48.1763 -30.7264 -8.94318 67.3476 -5.28975 -2.46577 28.7012 -1.28402 6.60731 1.39025 7.74069 -88.4616 11.3459 3.48361 2.71589 -0.322896 3.59972 2.5599 -22.8572 2.50688 3.63682 -2.84452 2.50689 3.63682 88.3997 -30.2604 -109.803 39.4942 -7.48015 -2.52689 4.23827 -29.5463 -17.8646 -26.4635 0.138085 -10.9032 -85.4297 -52.0533 85.8685 -30.4686 0.50242 18.4149 -1.2986 -12.3881 -0.585456 1.92543 -0.709656 -10.7542 -13.9213 -0.94023 -9.77744 -1.40779 -0.824073 -2.81896 
